<?xml version="1.0" encoding="UTF-8" standalone="no"?>
<!-- Created with Inkscape (http://www.inkscape.org/) -->

<svg
   xmlns:dc="http://purl.org/dc/elements/1.1/"
   xmlns:cc="http://creativecommons.org/ns#"
   xmlns:rdf="http://www.w3.org/1999/02/22-rdf-syntax-ns#"
   xmlns:svg="http://www.w3.org/2000/svg"
   xmlns="http://www.w3.org/2000/svg"
   xmlns:sodipodi="http://sodipodi.sourceforge.net/DTD/sodipodi-0.dtd"
   xmlns:inkscape="http://www.inkscape.org/namespaces/inkscape"
   id="svg2833"
   sodipodi:docname="paisley.svg"
   viewBox="0 0 399.54373 379.90338"
   sodipodi:version="0.32"
   version="1.0"
   inkscape:output_extension="org.inkscape.output.svg.inkscape"
   inkscape:version="0.91 r13725"
   width="399.54373"
   height="379.90338">
  <defs
     id="defs38" />
  <sodipodi:namedview
     id="base"
     bordercolor="#666666"
     inkscape:pageshadow="2"
     guidetolerance="10"
     pagecolor="#ffffff"
     gridtolerance="10000"
     inkscape:window-height="856"
     inkscape:zoom="0.92011719"
     objecttolerance="10"
     showgrid="false"
     borderopacity="1.0"
     inkscape:current-layer="layer1"
     inkscape:cx="176.32922"
     inkscape:cy="151.08657"
     inkscape:window-y="24"
     inkscape:window-x="243"
     inkscape:window-width="1105"
     inkscape:pageopacity="0.0"
     inkscape:document-units="px"
     fit-margin-top="0"
     fit-margin-left="0"
     fit-margin-right="0"
     fit-margin-bottom="0"
     inkscape:window-maximized="0" />
  <g
     id="layer1"
     inkscape:label="Layer 1"
     inkscape:groupmode="layer"
     transform="translate(-40.769521,-98.964982)">
    <g
       id="g3404"
       style="opacity:0.585;fill:#000000">
      <path
         id="path5"
         style="clip-rule:evenodd;fill:#000000;fill-rule:evenodd"
         d="m 221.70031,193.97956 c -5.86251,-17.40535 -23.81481,-29.32513 -45.744,-25.49293 -21.93515,3.82783 -37.57696,25.76138 -29.32897,52.3081 8.38138,26.96511 40.45607,49.46581 74.66001,43.53626 34.21704,-5.94745 57.4284,-40.40626 43.28758,-80.78875 -13.80003,-39.40905 -61.37186,-70.77617 -110.89512,-62.12022 -49.46724,8.642 -85.604989,57.96109 -67.974799,118.60147 18.287779,62.94535 92.520709,116.76096 172.744369,102.8807 51.28487,-8.85935 184.35911,-119.78898 177.25959,-243.251837 l -0.87101,-0.687371 C 439.43228,228.22569 299.84573,321.68639 253.41156,329.72758 180.76096,342.30034 113.38153,293.71472 96.593751,236.67834 80.365518,181.5178 113.16696,136.55407 158.24565,128.6747 c 45.12162,-7.87543 88.42193,20.76655 100.93688,56.65056 12.77855,36.70013 -8.34444,67.96958 -39.39485,73.35904 -31.04605,5.3835 -60.18689,-15.00522 -67.83627,-39.49173 -7.53588,-24.12851 6.6586,-44.09833 26.61645,-47.57836 19.96381,-3.47567 36.0268,7.1704 41.34505,23.00432 5.38074,15.99882 7.71734,16.94954 1.78914,-0.64136 z"
         inkscape:connector-curvature="0" />
      <path
         id="path7"
         style="clip-rule:evenodd;fill:#000000;fill-rule:evenodd"
         d="m 314.84045,392.29356 c 8.27003,4.19662 13.72779,15.6613 10.17927,26.31182 -3.55608,10.63581 -15.64981,16.81488 -28.27585,10.78417 -12.83116,-6.12595 -21.7018,-23.72771 -16.23875,-40.37043 5.49639,-16.70077 24.47462,-25.83696 43.64896,-15.79851 18.68061,9.7868 30.76452,35.86254 22.68283,59.89681 -8.046,23.92296 -35.30305,38.22041 -64.15117,25.10138 -29.96598,-13.64451 -51.4437,-54.44322 -38.75319,-93.52842 8.14778,-25.11288 23.17423,-38.49929 47.00275,-44.07415 l 1.76134,7.56642 c -21.5552,5.12315 -35.1454,17.26157 -42.53363,39.99864 -11.50975,35.39607 7.83426,72.41475 34.98502,84.88628 26.23803,12.04131 51.07806,-0.9201 58.40567,-22.74865 7.36373,-21.90288 -3.68226,-45.64249 -20.70985,-54.52106 -17.42473,-9.08695 -34.64095,-0.76776 -39.62566,14.38357 -4.96606,15.10084 3.0686,31.09162 14.71235,36.68698 11.47559,5.49969 22.49349,-0.11118 25.71595,-9.79101 3.24589,-9.69932 -1.73431,-20.12706 -9.25776,-23.94184 -7.59778,-3.85089 -7.9002,-5.08944 0.45172,-0.842 z"
         inkscape:connector-curvature="0" />
      <path
         id="path9"
         style="clip-rule:evenodd;fill:#000000;fill-rule:evenodd"
         d="m 386.00024,283.31819 c 4.19552,-4.34001 12.42915,-5.54858 18.43476,-1.28774 6.01275,4.23858 7.59361,12.96476 1.42443,19.66188 -6.26409,6.8017 -19.00696,8.95022 -28.4147,2.35355 -9.43001,-6.6038 -11.58182,-20.1554 -1.66078,-30.16137 9.68275,-9.76816 28.33411,-12.29001 41.88243,-2.65178 13.49902,9.59296 17.32185,29.27041 3.61849,44.71617 -14.22002,16.03862 -43.8921,21.58539 -66.01783,6.20599 -14.2209,-9.88341 -19.78863,-21.78597 -18.7809,-37.68748 l 5.07995,0.35764 c -0.85925,14.39761 4.18993,25.16906 17.06063,34.11861 20.04238,13.94526 46.94171,9.0067 59.90448,-5.5154 12.51758,-14.01432 9.07539,-31.94698 -3.23563,-40.69737 -12.35553,-8.76468 -29.35021,-6.4406 -38.14251,2.44951 -8.99683,9.10683 -7.03379,21.40233 1.53187,27.40977 8.54179,5.98997 20.1013,4.05601 25.81497,-2.13174 5.62034,-6.07284 4.18305,-14.00667 -1.28143,-17.88037 -5.47323,-3.86178 -12.96734,-2.76217 -16.77404,1.18456 -3.86391,3.98729 -4.69532,3.94649 -0.44419,-0.44443 z"
         inkscape:connector-curvature="0" />
      <path
         id="path11"
         style="clip-rule:evenodd;fill:#000000;fill-rule:evenodd"
         d="m 364.39498,213.00452 c -4.20343,0.009 -8.78862,-3.51353 -9.53379,-8.5765 -0.74794,-5.04666 2.88839,-10.06192 9.23696,-10.22291 6.45348,-0.16662 13.67305,5.13904 14.8822,13.03407 1.20638,7.91132 -4.59142,15.54014 -14.43103,15.42595 -9.58367,-0.10085 -19.84521,-8.1841 -21.51003,-19.61064 -1.65685,-11.37489 6.43519,-22.81198 20.8231,-23.45335 14.94508,-0.66399 32.03313,11.44749 34.93758,29.93925 1.86661,11.87669 -1.46785,20.42078 -9.9735,27.60581 l -2.27531,-2.7109 c 7.6866,-6.52958 10.69012,-14.27148 9.00783,-25.02361 -2.61403,-16.74889 -18.06326,-27.77011 -31.63295,-27.20754 -13.10872,0.53366 -20.49839,10.93663 -18.98007,21.31212 1.51713,10.40211 10.87887,17.76223 19.60769,17.84176 8.92394,0.0758 14.18409,-6.85638 13.09104,-14.03415 -1.08986,-7.15711 -7.6387,-11.98988 -13.50839,-11.84469 -5.78107,0.13678 -9.09302,4.68409 -8.40775,9.29086 0.67931,4.6024 4.85139,7.81364 8.67926,7.80407 3.86483,-0.01 4.2498,0.42771 -0.0128,0.4304 z"
         inkscape:connector-curvature="0" />
      <path
         id="path13"
         style="clip-rule:evenodd;fill:#000000;fill-rule:evenodd"
         d="m 226.34342,239.47361 c -8.0144,0.98429 -28.9191,-4.67716 -37.84672,-11.82931 -13.45646,-10.78959 -9.62473,-19.16192 -4.23145,-26.08826 7.21313,-9.28613 11.27358,-9.77592 18.02789,-4.29788 11.18974,9.09288 9.81715,41.90731 24.05028,42.21545 z"
         inkscape:connector-curvature="0" />
      <path
         id="path15"
         style="clip-rule:evenodd;fill:#000000;fill-rule:evenodd"
         d="m 198.30142,293.91539 c 6.69401,10.0519 39.65623,17.00288 56.1077,15.408 24.35592,-2.36649 30.99175,-15.21824 29.60553,-27.2379 -1.83738,-15.9327 -6.28632,-19.56661 -18.30742,-18.56627 -20.22525,1.68072 -49.37911,41.18844 -67.40581,30.39617 z"
         inkscape:connector-curvature="0" />
      <path
         id="path17"
         style="clip-rule:evenodd;fill:#000000;fill-rule:evenodd"
         d="m 89.748947,217.17368 c 0.621669,-7.99275 -5.900537,-28.53844 -13.319251,-37.0503 -11.059275,-12.69909 -21.159502,-11.419 -27.601276,-5.93858 -8.562012,7.29952 -11.226987,20.62208 -3.429686,17.58211 15.494477,-6.04331 43.406953,11.25591 44.350213,25.40677 z"
         inkscape:connector-curvature="0" />
      <path
         id="path19"
         style="clip-rule:evenodd;fill:#000000;fill-rule:evenodd"
         d="m 87.055068,241.98347 c 0.421213,-5.72976 -4.327253,-20.47753 -9.69183,-26.61456 -7.988989,-9.12193 -15.25194,-8.23786 -19.859063,-4.33673 -6.134347,5.21078 -8.012845,14.75702 -2.413081,12.59076 11.123259,-4.27842 31.248181,8.21544 31.963974,18.36053 z"
         inkscape:connector-curvature="0" />
      <path
         id="path21"
         style="clip-rule:evenodd;fill:#000000;fill-rule:evenodd"
         d="m 271.83369,449.56564 c 3.50467,1.08232 11.16088,7.46828 13.54678,12.23015 3.6003,7.1448 1.25349,11.40019 -2.27716,13.23091 -4.66805,2.44545 -10.84504,1.18359 -8.19253,-1.67508 5.31536,-5.71895 2.76268,-20.9752 -3.07709,-23.78598 z"
         inkscape:connector-curvature="0" />
      <path
         id="path23"
         style="clip-rule:evenodd;fill:#000000;fill-rule:evenodd"
         d="m 352.59694,184.63672 c -1.59181,1.61053 -7.10438,4.03306 -10.16762,4.06202 -4.42198,0.0326 -5.85487,-2.18962 -5.84752,-4.40162 0.0168,-2.93808 2.18407,-5.82228 2.88441,-3.78837 1.42452,4.08529 9.93668,6.56255 13.13073,4.12797 z"
         inkscape:connector-curvature="0" />
      <path
         id="path25"
         style="clip-rule:evenodd;fill:#000000;fill-rule:evenodd"
         d="m 175.95546,350.75117 c -7.20336,14.69014 -39.80883,44.00999 -61.52081,51.3365 -32.33731,10.92504 -48.702734,-1.61013 -54.360172,-17.75661 -7.546583,-21.56162 -4.089294,-28.79711 11.979739,-34.37383 26.9645,-9.34391 87.613273,24.67323 103.901243,0.79394 z"
         inkscape:connector-curvature="0" />
      <path
         id="path27"
         style="clip-rule:evenodd;fill:#000000;fill-rule:evenodd"
         d="m 226.44113,355.71951 c 1.63059,13.22486 -7.69623,47.89229 -19.43321,62.67988 -17.5342,22.07781 -34.51131,20.74966 -45.64274,12.10263 -14.80413,-11.50169 -15.62216,-18.02908 -6.97228,-29.0393 14.47683,-18.4161 71.55204,-22.18269 72.04823,-45.74321 z"
         inkscape:connector-curvature="0" />
      <path
         id="path29"
         style="clip-rule:evenodd;fill:#000000;fill-rule:evenodd"
         d="m 87.310325,257.26144 c -2.481003,-1.81699 -5.958425,-1.28504 -7.771049,1.18999 -1.812624,2.47504 -1.270344,5.95087 1.210659,7.76786 2.475039,1.81262 5.952461,1.28068 7.765085,-1.19436 1.812624,-2.47504 1.276308,-5.9465 -1.204695,-7.76349 z"
         inkscape:connector-curvature="0" />
      <path
         id="path31"
         style="clip-rule:evenodd;fill:#000000;fill-rule:evenodd"
         d="m 93.843461,274.35161 c -2.481003,-1.81699 -5.956828,-1.27471 -7.765084,1.19437 -1.812625,2.47504 -1.276308,5.94649 1.204695,7.76349 2.481003,1.81699 5.958424,1.28504 7.771048,-1.19 1.808257,-2.46907 1.270344,-5.95086 -1.210659,-7.76786 z"
         inkscape:connector-curvature="0" />
      <path
         id="path33"
         style="clip-rule:evenodd;fill:#000000;fill-rule:evenodd"
         d="m 107.7418,287.59058 c -2.48101,-1.81699 -5.95246,-1.28068 -7.765089,1.19436 -1.812624,2.47504 -1.276308,5.9465 1.204699,7.76349 2.481,1.81699 5.95842,1.28504 7.77104,-1.18999 1.81263,-2.47504 1.27035,-5.95087 -1.21065,-7.76786 z"
         inkscape:connector-curvature="0" />
      <path
         id="path35"
         style="clip-rule:evenodd;fill:#000000;fill-rule:evenodd"
         d="m 411.56303,331.76332 c 0.43028,2.34009 2.68062,3.89653 5.01038,3.46784 2.33413,-0.43466 3.87586,-2.67744 3.43365,-5.02626 -0.43029,-2.34009 -2.6703,-3.89812 -4.99409,-3.46507 -2.35042,0.43189 -3.8862,2.67903 -3.44994,5.02349 z"
         inkscape:connector-curvature="0" />
      <path
         id="path37"
         style="clip-rule:evenodd;fill:#000000;fill-rule:evenodd"
         d="m 425.55675,323.64051 c 0.43029,2.34009 2.68499,3.89056 5.01475,3.46187 2.32976,-0.42869 3.86553,-2.67584 3.42928,-5.0203 -0.42592,-2.34605 -2.66433,-3.89375 -5.01038,-3.46783 -2.3238,0.43305 -3.86553,2.67583 -3.43365,5.02626 z"
         inkscape:connector-curvature="0" />
      <path
         id="path39"
         style="clip-rule:evenodd;fill:#000000;fill-rule:evenodd"
         d="m 431.79213,309.77163 c 0.43029,2.3401 2.67466,3.89216 5.00442,3.46347 2.34009,-0.43029 3.87587,-2.67743 3.44398,-5.02785 -0.43028,-2.3401 -2.68499,-3.89057 -5.01475,-3.46188 -2.3238,0.43306 -3.8715,2.67147 -3.43365,5.02626 z"
         inkscape:connector-curvature="0" />
      <path
         id="path41"
         style="clip-rule:evenodd;fill:#000000;fill-rule:evenodd"
         d="m 194.51805,440.43308 c 0.43625,2.34446 2.68063,3.89652 5.01039,3.46783 2.32976,-0.42869 3.87586,-2.67743 3.43961,-5.02189 -0.43625,-2.34446 -2.6703,-3.89812 -5.00005,-3.46943 -2.34446,0.43625 -3.88023,2.6834 -3.44995,5.02349 z"
         inkscape:connector-curvature="0" />
      <path
         id="path43"
         style="clip-rule:evenodd;fill:#000000;fill-rule:evenodd"
         d="m 208.51178,432.31026 c 0.43625,2.34446 2.68499,3.89056 5.01475,3.46187 2.32976,-0.42869 3.86553,-2.67583 3.43524,-5.01593 -0.43188,-2.35042 -2.67029,-3.89812 -5.01038,-3.46783 -2.32976,0.42869 -3.8699,2.6818 -3.43961,5.02189 z"
         inkscape:connector-curvature="0" />
      <path
         id="path45"
         style="clip-rule:evenodd;fill:#000000;fill-rule:evenodd"
         d="m 214.75312,418.44576 c 0.43029,2.34009 2.66433,3.89375 4.99846,3.4591 2.34009,-0.43029 3.87586,-2.67744 3.44994,-5.02349 -0.43625,-2.34446 -2.68499,-3.89056 -5.01475,-3.46187 -2.32976,0.42869 -3.87149,2.67147 -3.43365,5.02626 z"
         inkscape:connector-curvature="0" />
      <path
         id="path47"
         style="clip-rule:evenodd;fill:#000000;fill-rule:evenodd"
         d="m 389.60354,182.02419 c 1.68548,-1.17542 2.13869,-3.44573 0.99947,-5.06804 -1.14518,-1.62668 -3.42774,-1.98808 -5.11759,-0.80669 -1.68111,1.16945 -2.11802,3.44253 -0.98317,5.07081 1.12888,1.62391 3.41145,1.9853 5.10129,0.80392 z"
         inkscape:connector-curvature="0" />
      <path
         id="path49"
         style="clip-rule:evenodd;fill:#000000;fill-rule:evenodd"
         d="m 378.44408,174.29123 c 1.67952,-1.17978 2.13272,-3.45009 0.98754,-5.07677 -1.13325,-1.61795 -3.42178,-1.98371 -5.10566,-0.79796 -1.68112,1.16946 -2.12399,3.43817 -0.98477,5.06048 1.12451,1.62987 3.41304,1.99564 5.10289,0.81425 z"
         inkscape:connector-curvature="0" />
      <path
         id="path51"
         style="clip-rule:evenodd;fill:#000000;fill-rule:evenodd"
         d="m 365.4564,174.54703 c 1.68548,-1.17542 2.12676,-3.45446 0.99351,-5.07241 -1.13922,-1.62231 -3.42179,-1.98371 -5.11163,-0.80232 -1.68708,1.16508 -2.12995,3.4338 -0.99511,5.06207 1.14082,1.63265 3.42338,1.99404 5.11323,0.81266 z"
         inkscape:connector-curvature="0" />
      <path
         id="path53"
         style="clip-rule:evenodd;fill:#000000;fill-rule:evenodd"
         d="m 89.383667,413.27279 c -0.837583,2.14457 0.185733,4.62576 2.285871,5.58657 2.114838,0.95325 4.543619,0.002 5.418161,-2.14349 0.883277,-2.15692 -0.152387,-4.68381 -2.29822,-5.63227 -2.144236,-0.93813 -4.557898,0.043 -5.405812,2.18919 z"
         inkscape:connector-curvature="0" />
      <path
         id="path55"
         style="clip-rule:evenodd;fill:#000000;fill-rule:evenodd"
         d="m 105.23084,414.44229 c -0.91705,2.178 0.11744,4.73152 2.30342,5.70022 2.20548,0.99214 4.75824,0.0212 5.72098,-2.16911 0.95081,-2.19909 -0.096,-4.7983 -2.33527,-5.76935 -2.22294,-0.96829 -4.77528,0.0396 -5.68913,2.23824 z"
         inkscape:connector-curvature="0" />
      <path
         id="path57"
         style="clip-rule:evenodd;fill:#000000;fill-rule:evenodd"
         d="m 118.40625,406.26078 c -0.98852,2.26309 0.0571,4.88893 2.34526,5.8683 2.28973,0.9897 4.98671,-0.0405 6.01497,-2.32032 1.02666,-2.29014 -0.0314,-4.96168 -2.36081,-5.93466 -2.32508,-0.97895 -5.01409,0.10292 -5.99942,2.38668 z"
         inkscape:connector-curvature="0" />
      <path
         id="path59"
         style="clip-rule:evenodd;fill:#000000;fill-rule:evenodd"
         d="m 298.60048,473.24604 c -0.6805,2.30542 0.58918,4.73798 2.83421,5.43839 2.25376,0.68848 4.62828,-0.61455 5.29685,-2.9287 0.68647,-2.30106 -0.58321,-4.73362 -2.83421,-5.43839 -2.24503,-0.70042 -4.61198,0.61731 -5.29685,2.9287 z"
         inkscape:connector-curvature="0" />
      <path
         id="path61"
         style="clip-rule:evenodd;fill:#000000;fill-rule:evenodd"
         d="m 315.03777,471.83318 c -0.68647,2.30106 0.58481,4.74394 2.8342,5.43839 2.2494,0.69445 4.61198,-0.61732 5.29685,-2.9287 0.68051,-2.30543 -0.58917,-4.73798 -2.8342,-5.43839 -2.2494,-0.69445 -4.62391,0.60858 -5.29685,2.9287 z"
         inkscape:connector-curvature="0" />
      <path
         id="path63"
         style="clip-rule:evenodd;fill:#000000;fill-rule:evenodd"
         d="m 329.59998,463.38452 c -0.67454,2.30979 0.58918,4.73798 2.84017,5.44276 2.24503,0.70041 4.61795,-0.61295 5.30282,-2.92433 0.6805,-2.30543 -0.59514,-4.74235 -2.84017,-5.44276 -2.2478,-0.68412 -4.62231,0.61891 -5.30282,2.92433 z"
         inkscape:connector-curvature="0" />
    </g>
  </g>
  <metadata
     id="metadata36">
    <rdf:RDF>
      <cc:Work>
        <dc:format>image/svg+xml</dc:format>
        <dc:type
           rdf:resource="http://purl.org/dc/dcmitype/StillImage" />
        <cc:license
           rdf:resource="http://creativecommons.org/publicdomain/zero/1.0/" />
        <dc:publisher>
          <cc:Agent
             rdf:about="http://openclipart.org/">
            <dc:title>Openclipart</dc:title>
          </cc:Agent>
        </dc:publisher>
        <dc:title>Paisley Curves</dc:title>
        <dc:date>2010-10-25T23:09:02</dc:date>
        <dc:description>a curved paisley design</dc:description>
        <dc:source>https://openclipart.org/detail/92725/paisley-curves-by-jaschon</dc:source>
        <dc:creator>
          <cc:Agent>
            <dc:title>jaschon</dc:title>
          </cc:Agent>
        </dc:creator>
        <dc:subject>
          <rdf:Bag>
            <rdf:li>background</rdf:li>
            <rdf:li>black and white</rdf:li>
            <rdf:li>curve</rdf:li>
            <rdf:li>decoration</rdf:li>
            <rdf:li>flourish</rdf:li>
            <rdf:li>gray</rdf:li>
            <rdf:li>leaf</rdf:li>
            <rdf:li>nature</rdf:li>
            <rdf:li>paisley</rdf:li>
            <rdf:li>pattern</rdf:li>
            <rdf:li>plant</rdf:li>
            <rdf:li>swirl</rdf:li>
            <rdf:li>tile</rdf:li>
          </rdf:Bag>
        </dc:subject>
      </cc:Work>
      <cc:License
         rdf:about="http://creativecommons.org/publicdomain/zero/1.0/">
        <cc:permits
           rdf:resource="http://creativecommons.org/ns#Reproduction" />
        <cc:permits
           rdf:resource="http://creativecommons.org/ns#Distribution" />
        <cc:permits
           rdf:resource="http://creativecommons.org/ns#DerivativeWorks" />
      </cc:License>
    </rdf:RDF>
  </metadata>
</svg>
